<?xml version="1.0" encoding="UTF-8"?>
<svg width="15px" height="25px" viewBox="0 0 15 25" version="1.1" xmlns="http://www.w3.org/2000/svg" xmlns:xlink="http://www.w3.org/1999/xlink">
    <!-- Generator: Sketch 49 (51002) - http://www.bohemiancoding.com/sketch -->
    <title>Dictation</title>
    <desc>Created with Sketch.</desc>
    <defs></defs>
    <g id="Page-1" stroke="none" stroke-width="1" fill="none" fill-rule="evenodd">
        <g id="Desktop-HD" transform="translate(-1158.000000, -978.000000)" fill="#A5A5A5">
            <path d="M1169.46667,1002.99674 L1169.46667,1002.9974 L1161.53001,1002.9974 L1161.53001,1002.99687 C1161.52005,1002.99722 1161.51005,1002.9974 1161.50001,1002.9974 C1161.03977,1002.9974 1160.66667,1002.6243 1160.66667,1002.16406 C1160.66667,1001.70382 1161.03977,1001.33073 1161.50001,1001.33073 C1161.51005,1001.33073 1161.52005,1001.33091 1161.53001,1001.33126 L1161.53001,1001.32073 L1164.67667,1001.32073 L1164.67667,998.787395 C1160.86727,998.344685 1157.99537,995.115765 1158.00001,991.280729 C1158.00001,991.244062 1158.00567,991.210729 1158.00634,991.177395 L1158.00634,989.267311 C1158.00216,989.233481 1158.00001,989.199023 1158.00001,989.164062 C1158.00001,988.703825 1158.3731,988.330729 1158.83334,988.330729 C1159.29358,988.330729 1159.66667,988.703825 1159.66667,989.164062 C1159.66667,989.191789 1159.66532,989.219201 1159.66267,989.246233 L1159.66267,991.540729 L1159.65834,991.540729 L1159.65834,991.547395 C1159.65834,991.577395 1159.66234,991.607395 1159.66267,991.637395 L1159.66267,991.950729 L1159.67834,991.950729 C1159.92604,994.91443 1162.35142,997.224388 1165.32367,997.327395 L1165.66034,997.327395 C1168.63354,997.226086 1171.06026,994.915405 1171.30701,991.950729 L1171.32701,991.950729 L1171.32701,989.174062 L1171.3334,989.174019 C1171.33336,989.170704 1171.33334,989.167385 1171.33334,989.164062 C1171.33334,988.703825 1171.70643,988.330729 1172.16667,988.330729 C1172.62691,988.330729 1173.00001,988.703825 1173.00001,989.164062 C1173.00001,989.188049 1172.99899,989.2118 1172.99701,989.235274 L1172.99701,991.280729 L1172.98701,991.280729 L1172.98667,991.280729 C1172.98929,995.108966 1170.12797,998.334035 1166.32667,998.787395 L1166.32667,1001.32073 L1169.46667,1001.32073 L1169.46667,1001.33138 C1169.47773,1001.33095 1169.48884,1001.33073 1169.50001,1001.33073 C1169.96024,1001.33073 1170.33334,1001.70382 1170.33334,1002.16406 C1170.33334,1002.6243 1169.96024,1002.9974 1169.50001,1002.9974 C1169.48884,1002.9974 1169.47773,1002.99718 1169.46667,1002.99674 Z M1169.99334,989.877395 C1169.99334,990.380729 1169.99334,990.910729 1169.96667,991.414062 C1169.9462,991.86796 1169.87691,992.318334 1169.76001,992.757395 C1169.49914,993.678958 1168.94286,994.48936 1168.17667,995.064062 C1166.60513,996.304003 1164.38821,996.304003 1162.81667,995.064062 C1162.04849,994.49114 1161.49153,993.680077 1161.23267,992.757395 C1161.11523,992.318458 1161.04604,991.868013 1161.02634,991.414062 C1160.99734,990.910729 1161.00001,990.380729 1161.00001,989.877395 L1161.00001,985.664062 C1161.00001,985.164062 1161.00267,982.954062 1161.00001,982.580729 C1161.01318,982.1241 1161.09176,981.67172 1161.23334,981.237395 C1161.76698,979.323703 1163.5103,978 1165.49701,978 C1167.48371,978 1169.22703,979.323703 1169.76067,981.237395 C1169.88599,981.675604 1169.96421,982.125929 1169.99401,982.580729 C1170.02401,983.084062 1169.99401,985.164062 1169.99401,985.664062 L1169.99401,989.877395 L1169.99334,989.877395 Z" id="Dictation"></path>
        </g>
    </g>
</svg>